<svg id="bg" xmlns="http://www.w3.org/2000/svg" viewBox="0 0 3790.38 2142.65"><defs><style>.cls-1{fill:#f1f4fa;}.cls-2{fill:#221f20;}.cls-3,.cls-4{fill:none;stroke-linecap:square;stroke-linejoin:round;stroke-width:7px;}.cls-3{stroke:#221f20;}.cls-4{stroke:#db3832;}</style></defs><rect class="cls-1" x="4.36" y="3.5" width="3782.07" height="2077.51"/><g id="silver_lining"><path class="cls-2" d="M-3642.6-2163.5a2.87,2.87,0,0,1-.71-.08,3,3,0,0,1-2.25-3l2.11-58.5-12.8,59.23a3,3,0,0,1-1.34,1.9,3,3,0,0,1-2.3.34l-82.35-21.68-25.83,21.1a3,3,0,0,1-3.46.21l-77.73-49.64a3,3,0,0,1-1.12-3.68,3,3,0,0,1,3.47-1.67l103.26,27.18,36.89-30.15-91.56-77.91a3,3,0,0,1-1-2.28,2.94,2.94,0,0,1,1.08-2.26l58.71-48.14a3,3,0,0,1,3.9.13l53.43,50.16-4.05,4.32-51.54-48.39-54,44.25,91.56,77.91a2.94,2.94,0,0,1,1,2.28,2.94,2.94,0,0,1-1.08,2.26l-36.32,29.69,75.2,19.79,19.19-88.85a3,3,0,0,1,3.26-2.32,3,3,0,0,1,2.59,3.05l-2.79,77.62,33.61-70.47,2.13-89.94a3,3,0,0,1,2.37-2.83l45.47-9.27a2.94,2.94,0,0,1,2.93,1.08,3,3,0,0,1,.34,3.09l-47.35,99.28-1.71,71.83,48-82a3,3,0,0,1,3.12-1.41,3,3,0,0,1,2.36,2.48l12.06,83.76,39.95-65.29-20.81-4.32a3,3,0,0,1-2.36-2.76,3,3,0,0,1,2.08-3l34.73-10.82a3,3,0,0,1,3.21,1,3,3,0,0,1,.19,3.37l-7.6,12.42,22.94,4.76,28.13-25a3,3,0,0,1,4,0l44.65,41.35a3,3,0,0,1,.62,3.52,3,3,0,0,1-3.23,1.55l-72.44-15.06-5.2,4.63,28,59.16h58.19l33-76.59-16.88,4.3a3,3,0,0,1-3.23-1.28l-8.72-13.77a3,3,0,0,1-.36-2.35,3,3,0,0,1,1.5-1.86l18.77-9.7a3,3,0,0,1,2.89.09l16.09,9.71a2.94,2.94,0,0,1,1.19,3.7l-1,2.45,37.16-9.48a3,3,0,0,1,2.58.55,2.94,2.94,0,0,1,1.11,2.4l-2.55,90.33,35.41-14.49,2.24,5.48-39.62,16.21a3,3,0,0,1-2.8-.3,3,3,0,0,1-1.28-2.52l2.57-91-37.78,9.64-35.57,82.57a3,3,0,0,1-2.72,1.79h-62a3,3,0,0,1-2.67-1.69l-29.77-62.86a3,3,0,0,1,.71-3.48l3.57-3.18-20.71-4.3-45.34,74.1a3,3,0,0,1-3.13,1.35,3,3,0,0,1-2.33-2.47l-12-83.5L-3602-2165a3,3,0,0,1-3.36,1.35,3,3,0,0,1-2.15-2.92l1.66-70.08-34.07,71.43A3,3,0,0,1-3642.6-2163.5Zm-187.56-44.92,60,38.32,20.83-17Zm373.89-29.69,57.69,12-34.86-32.28Zm-48-10,11.71,2.44,4.61-7.52Zm134.43-9.1,5.84,9.22,19.22-4.91,1.83-4.26-12.46-7.51Zm-227.65-81.33-1.76,74.38,39.11-82Z" transform="translate(5060.8 2374.89)"/><circle class="cls-2" cx="1423.87" cy="85.54" r="16.81"/><circle class="cls-2" cx="2086.4" cy="85.54" r="16.81"/><circle class="cls-2" cx="2237.88" cy="85.54" r="16.81"/><path class="cls-2" d="M-2744.23-2082.43a3,3,0,0,1-2.66-1.66l-15.39-31.56a3,3,0,0,1,.61-3.43l51.23-49.49-18.14-86.81h-31.18l-32.19,89.92a3,3,0,0,1-3.67,1.83,3,3,0,0,1-2-3.59l20.84-78.56-66,81.19a3,3,0,0,1-3.54.82A3,3,0,0,1-2848-2167l12.6-66-29.62,67.73a3,3,0,0,1-3.37,1.7,3,3,0,0,1-2.3-3l3.28-94.3-38.68,5.19-22.16,89.92a3,3,0,0,1-3.37,2.21,3,3,0,0,1-2.44-3.21l8-81.35-62.6,83.42a3,3,0,0,1-3.47,1,3,3,0,0,1-1.83-3.1l8-66.18-24.5,67.54a3,3,0,0,1-2.78,1.95H-3119.5a3,3,0,0,1-2.36-1.17,3,3,0,0,1-.49-2.59l52.43-186.61,5.7,1.6-51.38,182.85h100.34l32.61-89.93a3,3,0,0,1,3.47-1.87,3,3,0,0,1,2.25,3.24l-9.78,80.91,62.32-83a3,3,0,0,1,3.44-1,3,3,0,0,1,1.87,3l-5,50.86,12.78-51.86a3,3,0,0,1,2.48-2.22l44.14-5.92a3,3,0,0,1,2.38.74,3,3,0,0,1,1,2.3l-2.86,82.31,34-77.68a3,3,0,0,1,3.59-1.65,3,3,0,0,1,2,3.39l-15.34,80.35,67.28-82.78a3,3,0,0,1,3.64-.77,3,3,0,0,1,1.52,3.4l-6.41,24.16,9.27-25.92a3,3,0,0,1,2.79-2h35.67a3,3,0,0,1,2.9,2.36l14.33,68.53,2-38.26a2.93,2.93,0,0,1,1.06-2.11l44.59-37.3a2.94,2.94,0,0,1,2.17-.68,3,3,0,0,1,2,1.07l24.2,29.39a3,3,0,0,1,.65,2.28l-5.23,38.05a3.21,3.21,0,0,1-.21.75l-41.2,97.5a3,3,0,0,1-2,1.72l-62.62,15.48A2.94,2.94,0,0,1-2744.23-2082.43Zm-11.79-33.88,13.4,27.47,58.86-14.55,40.48-95.77,5-36.38-21.48-26.09-41.32,34.56-3.1,58.37,1.16,1.2-2.13,2.06h0Z" transform="translate(5060.8 2374.89)"/><rect class="cls-2" x="-2710.64" y="-2176.87" width="90.12" height="5.92" transform="translate(5357.78 1948.68) rotate(-8.66)"/></g><line class="cls-3" x1="4.36" y1="307.98" x2="3786.43" y2="307.98"/><polyline class="cls-3" points="3786.43 458.27 3426.15 453.5 3171.88 462.26 3058.33 458.27 2852.46 461.4 2525.51 463.14 2159.65 453.39 2033.72 462.26 1755.44 457.04 1335.66 474.45 650.44 464.48 222.46 438.66 4.36 432.56"/><polyline class="cls-3" points="3786.43 608.55 3424.3 599.02 3170.09 616.53 3056.6 608.55 2849.73 614.81 2520.86 618.29 2154.15 598.8 2031.13 616.53 1751.67 606.11 1333.25 640.92 644.65 620.97 222.88 569.34 4.36 557.13"/><polyline class="cls-3" points="3786.43 758.84 3422.45 744.55 3168.31 770.81 3054.86 758.84 2847 768.22 2516.2 773.45 2148.65 744.21 2028.54 770.81 1747.91 755.17 1330.83 807.39 638.86 777.46 223.29 700.01 4.36 681.7"/><polyline class="cls-3" points="3786.43 909.13 3420.61 890.07 3166.52 925.09 3053.13 909.13 2844.27 921.64 2511.55 928.6 2143.15 889.62 2025.94 925.09 1744.15 904.23 1328.41 973.86 633.07 933.95 223.71 830.69 4.36 806.28"/><polyline class="cls-3" points="3786.43 1059.41 3418.76 1035.59 3164.73 1079.36 3051.39 1059.41 2841.54 1075.05 2506.9 1083.76 2137.65 1035.03 2023.35 1079.36 1740.39 1053.29 1325.99 1140.33 627.27 1090.45 224.12 961.37 4.36 930.85"/><polyline class="cls-3" points="3786.43 1209.7 3416.91 1181.11 3162.94 1233.64 3049.66 1209.7 2838.8 1228.46 2502.24 1238.91 2132.15 1180.44 2020.76 1233.64 1736.63 1202.35 1323.58 1306.8 621.49 1246.94 224.54 1092.05 4.36 1055.42"/><polyline class="cls-3" points="3786.43 1359.98 3415.06 1326.63 3161.15 1387.91 3047.93 1359.98 2836.07 1381.88 2497.59 1394.06 2126.65 1325.85 2018.16 1387.91 1732.87 1351.42 1321.16 1473.27 615.69 1403.43 224.95 1222.73 4.36 1180"/><polyline class="cls-3" points="3786.43 1510.27 3413.21 1472.15 3159.36 1542.19 3046.19 1510.27 2833.34 1535.29 2492.93 1549.22 2121.16 1471.26 2015.57 1542.19 1729.1 1500.48 1318.74 1639.74 609.9 1559.92 225.37 1353.4 4.36 1304.57"/><polyline class="cls-3" points="3786.43 1660.56 3411.36 1617.68 3157.57 1696.47 3044.46 1660.56 2830.61 1688.71 2488.28 1704.37 2115.66 1616.67 2012.98 1696.47 1725.34 1649.54 1316.32 1806.21 604.11 1716.42 225.78 1484.08 4.36 1429.14"/><polyline class="cls-3" points="3786.43 1810.84 3409.51 1763.2 3155.78 1850.74 3042.72 1810.84 2827.89 1842.12 2483.63 1859.53 2110.16 1762.08 2010.39 1850.74 1721.58 1798.6 1313.9 1972.68 598.32 1872.91 226.19 1614.76 4.36 1553.72"/><polyline class="cls-3" points="3786.43 1961.13 3407.66 1908.72 3154 2005.02 3040.99 1961.13 2825.15 1995.53 2478.97 2014.68 2104.66 1907.49 2007.8 2005.02 1717.82 1947.66 1311.49 2139.15 592.53 2029.4 226.61 1745.44 4.36 1678.29"/><line class="cls-4" x1="463.18" y1="3.5" x2="463.18" y2="2081.01"/><line class="cls-4" x1="443.57" y1="3.5" x2="443.57" y2="2081.01"/><circle class="cls-2" cx="113.82" cy="1769.5" r="16.81"/><path class="cls-2" d="M-4950-600.83a82.11,82.11,0,0,1,4.41,11.6c1.29,5,1.78,10.17,2.52,15.25,1.52,10.52,3.47,21,4.66,31.57a159.67,159.67,0,0,1,1.1,17.89c0,3.22,5,3.23,5,0,0-10.88-1.43-21.66-3.1-32.4-.86-5.48-1.76-11-2.56-16.44-.77-5.27-1.3-10.66-2.47-15.86-1.12-4.93-3.26-9.5-5.24-14.13a2.52,2.52,0,0,0-3.42-.9,2.57,2.57,0,0,0-.9,3.42Z" transform="translate(5060.8 2374.89)"/><path class="cls-2" d="M-4937-526.35c-8.56,16.7-10.52,35.73-11,54.22-.12,5.18-.13,10.37-.13,15.56,0,3.21,5,3.22,5,0,0-17.84,0-36.08,5-53.36a78.2,78.2,0,0,1,5.44-13.89c1.47-2.86-2.84-5.39-4.31-2.53Z" transform="translate(5060.8 2374.89)"/><path class="cls-2" d="M-4931.87-522.67c7.38-1.43,14.24-4.51,21.25-7.13a77.92,77.92,0,0,1,10.48-3.24c3.53-.78,7-1.1,10.41-2.48s6.55-3.3,9.95-4.71a2.57,2.57,0,0,0,1.74-3.07,2.51,2.51,0,0,0-3.07-1.75c-3.1,1.28-6,2.91-9.06,4.31s-6.42,1.94-9.81,2.57c-7.31,1.38-14.12,4.45-21,7a76.1,76.1,0,0,1-12.18,3.63,2.51,2.51,0,0,0-1.75,3.07,2.56,2.56,0,0,0,3.08,1.75Z" transform="translate(5060.8 2374.89)"/><path class="cls-2" d="M-4936.94-566.52c5-2.74,10.56-4.63,15.17-8.14A44.71,44.71,0,0,0-4910-588.87a72.27,72.27,0,0,0,8.5-37.67,195.62,195.62,0,0,0-2.6-22.64,2.52,2.52,0,0,0-3.08-1.75,2.56,2.56,0,0,0-1.74,3.08c1.91,12.35,3.75,25.06,1.38,37.49-2.11,11.14-7.11,22.94-15.79,30.55-4.69,4.11-10.75,6-16.15,9-2.83,1.53-.31,5.85,2.52,4.32Z" transform="translate(5060.8 2374.89)"/><path class="cls-2" d="M-4941-576.28c-5.39-.56-11.06-.29-15.85-3.21a53.8,53.8,0,0,1-7.29-5.65,76.11,76.11,0,0,1-6.79-6.77,54.34,54.34,0,0,1-13.34-32.27c-.49-6.93-1.83-14-1.23-20.94a2.51,2.51,0,0,0-2.5-2.5,2.55,2.55,0,0,0-2.5,2.5c-.56,6.58.72,13.14,1.15,19.69a65,65,0,0,0,3.81,18.87c4.76,12.53,13.93,22.7,24.73,30.44a22.47,22.47,0,0,0,9.45,3.85c3.43.56,6.91.63,10.36,1a2.52,2.52,0,0,0,2.5-2.5,2.55,2.55,0,0,0-2.5-2.5Z" transform="translate(5060.8 2374.89)"/><circle class="cls-2" cx="2273.39" cy="1827.03" r="16.81"/><path class="cls-2" d="M-2783.94-540.68a61.39,61.39,0,0,1,29.24,20.1c7.08,9,11.24,20.06,13.37,31.3a111.62,111.62,0,0,1,1.81,20.72c0,3.22,5,3.23,5,0,0-12.7-1.71-25.64-6.4-37.52a66.73,66.73,0,0,0-21.75-29.2,69.62,69.62,0,0,0-19.94-10.22c-3.06-1-4.38,3.8-1.33,4.82Z" transform="translate(5060.8 2374.89)"/><path class="cls-2" d="M-2738.32-469.82c-4,6.62-9.91,11.66-15,17.36-5.8,6.46-9.68,14.21-14.09,21.63a98.09,98.09,0,0,0-7.12,13.87,2.52,2.52,0,0,0,1.74,3.07,2.56,2.56,0,0,0,3.08-1.74c3.32-8.32,8.69-15.64,12.95-23.47a50.76,50.76,0,0,1,6.71-9.54c2.51-2.82,5.22-5.46,7.82-8.2A62.17,62.17,0,0,0-2734-467.3c1.66-2.76-2.66-5.27-4.32-2.52Z" transform="translate(5060.8 2374.89)"/><path class="cls-2" d="M-2737.42-481c-12.63,5.41-25.55,10.1-38,15.84-5.87,2.7-11.77,5.51-17.06,9.27a138.22,138.22,0,0,0-13.79,11.57,162.14,162.14,0,0,1-15.07,13,2.58,2.58,0,0,0-.9,3.42,2.53,2.53,0,0,0,3.42.9c9.74-7,17.63-16.2,27.21-23.38a94.36,94.36,0,0,1,16.6-9.49c6.09-2.87,12.3-5.46,18.53-8,7.22-2.92,14.46-5.78,21.62-8.84a2.52,2.52,0,0,0,.9-3.42,2.57,2.57,0,0,0-3.42-.9Z" transform="translate(5060.8 2374.89)"/><path class="cls-2" d="M-2746-515.23c14.07-8.83,31.36-9.38,46.53-15.47a57.39,57.39,0,0,0,12.59-6.81,2.57,2.57,0,0,0,.9-3.42,2.52,2.52,0,0,0-3.43-.89c-13.63,10-31,11-46.48,16.37a61.82,61.82,0,0,0-12.63,5.9c-2.72,1.71-.21,6,2.52,4.32Z" transform="translate(5060.8 2374.89)"/><path class="cls-2" d="M-2746.6-517.2c-5.25-15.49-3.88-32.18-7.71-48-.76-3.13-5.58-1.81-4.82,1.33,3.82,15.79,2.46,32.46,7.71,48,1,3,5.86,1.73,4.82-1.33Z" transform="translate(5060.8 2374.89)"/></svg>